<svg version="1.0" xmlns="http://www.w3.org/2000/svg" width="933.3333" height="933.3333" viewBox="0 0 700 700">
  <path d="M107.5 59.9c-3.1 1.3-5.4 4.4-7.5 10-4.7 12.3-.2 41.2 15.9 101.4 3.3 12.2 8.5 32.3 11.6 44.7 3.1 12.4 6.3 24.7 7 27.5.8 2.7 1.9 7.2 2.5 10 .6 2.7 2.5 10.6 4.1 17.5 1.7 6.9 3.2 13.4 3.5 14.5.2 1.1 1.5 7 2.8 13 3.3 14.6 3.7 16.4 4 20.3.6 6.5-15.3 41.8-28.9 64.2-10.5 17.4-21.9 34-23.3 34-4.6 0-28.3-13.8-44.3-25.8-18.4-13.7-27.8-19.3-31.1-18.4-1.1.2-2.6 1.5-3.4 2.8-1.9 2.8-1.5 3.7 7.9 16.4 10.9 14.6 17.8 25 23.9 36 1.4 2.5 4.9 8.5 7.8 13.5 6.6 11.4 10 18.1 10 19.7 0 .7-9.2 13.4-20.5 28.3-23.7 31.2-21.9 28.9-31 39.5-7.8 9.1-9.3 11.8-7 12.7 4.5 1.7 16.5-11 43.7-46 11-14.1 20.3-25.7 20.6-25.7.7 0 3.2 4.8 20.5 38.1 27.3 52.7 35.4 66.3 45.7 77.2 9.2 10 19.2 13 28.4 8.6 8.6-4 13.2-14 14.4-30.9 1.2-18.2.5-68.7-1.2-88-.2-2-.6-7.6-1-12.5-.4-5-.9-10.6-1.1-12.5-.2-1.9-.7-6.7-1-10.5-.3-3.9-.8-8.1-1-9.5-.2-1.4-.7-5-1-8-.3-3-.8-6.6-1-8-.2-1.4-.7-4.9-1-7.9-.4-3-.8-6.1-1-7-.1-.9-.6-4.3-1-7.6-.3-3.2-.8-6.2-1-6.5-.2-.3-.6-3.4-1-7s-.8-6.7-1-7c-.2-.3-.6-3-1-6s-.8-5.7-1-6c-.2-.3-.6-2.7-.9-5.3-.4-2.6-1.1-7.1-1.6-9.9-1.7-8.8-1.1-20.8 1.1-20.8.5 0 8.6 6.2 18.1 13.8 25.5 20.4 39.6 30.7 59.5 44 25.9 17.4 38.5 23.3 54.8 25.7 2.2.4 5.7 1 7.8 1.5 2.1.4 7.8.8 12.7.8 7.6 0 9.6-.3 14.7-2.7 7.9-3.8 16.1-12.2 26.4-27.1 11.9-17.2 14-18.9 24.4-19.6 10.8-.7 20.5 3 42.5 16 27.6 16.3 54.7 26.6 71 26.9 5.9.1 7.1-.3 11.1-3 2.5-1.7 6.1-5.1 8.1-7.5 6.8-8.3 15-15.5 20.6-18.3 10.9-5.4 19.3-4.1 41.7 6.5 13.7 6.5 15.3 7.1 15.9 6.1.3-.4-.7-1.9-2.2-3.3-3.7-3.4-26.7-16.2-35.5-19.8-15.1-6.1-27.5-2.5-41.1 11.9-3.9 4.1-8.9 9.2-11.1 11.4l-3.9 3.9-6.6-.6c-14.1-1.3-39.6-11.4-61-24.1-25.3-15.1-39.8-19.5-55.5-17-5.9.9-13.9 5.1-17.3 9-1.7 1.8-6.3 8.9-10.3 15.7-7.8 13-15 21.3-21.2 24.3-5 2.3-13.6 2.2-25.8-.3-19.6-4.2-28.7-8.5-54.3-25.7-12.9-8.7-37.9-26.6-43.6-31.2-26.6-21.6-37.7-29-42.6-28-1.3.2-2.4.1-2.4-.4 0-.4 1.3-6 3-12.3 1.6-6.4 3.2-12.8 3.5-14.3 2.4-12.6 4.5-25.2 5.5-32.3.6-4.7 1.3-9.6 1.5-11 2-13.3 2.8-61.2 1.2-73.5-3.8-29.3-19.8-63.3-40.8-86.6-3.7-4.1-8.6-9.6-11-12.3-4.7-5.3-12.3-10.6-14.8-10.5-.9 0-2.5.4-3.6.8zm6.8 8.2c2.3 1.1 20.3 18.9 26.1 25.9 15.3 18.6 27.7 50.5 31.2 80.5 1.6 14.1.6 48.5-2.2 69.5-3 23-10.6 60-11.4 55.2-.3-1.5-.3-1.6-1.8-7.7-.6-2.8-3.9-16.9-7.3-31.5-3.3-14.6-7.4-32.1-9.1-39-1.6-6.9-3.1-13.2-3.3-14.1-.6-2.9-11.6-45.1-14.1-53.9-2.2-7.9-7.6-30.7-8.9-37.5-3.9-21-4.7-27.3-4.7-34.5 0-7.5 1.2-14 2.6-14 .3 0 1.6.5 2.9 1.1zm42.2 288.2c0 15.8-.4 22.5-1.9 33.7-.7 4.6-3.7 15.4-5.2 18.2-4.8 9.2-12.6 13.9-24.2 14.3-6.2.2-14.6-.9-16.1-2.1-.2-.2 3.5-6.3 8.1-13.6 15.6-24.5 27.4-46.5 34.9-65.1 3.6-8.9 4.4-6.2 4.4 14.6zm6.9 28.2c.6 3.6 3.3 22.2 4.1 28.5.3 2.5.7 5.6.9 7 .3 1.4.7 5.2 1.1 8.5.3 3.3.8 7.3 1 9 .9 5.9 2.7 23.7 4.1 39 2.4 26.2 2.9 37.5 2.8 65.5 0 23.8-.2 29.4-1.6 34-4.8 15.5-16.2 17.7-28.4 5.6-10.8-10.9-17.7-22.5-47.2-79.6-4.1-8-10.4-20.1-13.9-26.9l-6.5-12.4 8.3-12.1c4.6-6.7 9.9-14.5 11.8-17.4l3.5-5.3 4.5.6c27.9 4.1 42.4-2.9 49.5-23.7 1.7-5.3 2.2-7.5 3.8-17 .6-3.7 1.3-6.7 1.4-6.5.2.1.5 1.6.8 3.2zM46.9 397.2c11.5 8.7 22 15.1 34.8 21.4l13.2 6.5-3.7 5.7c-10.4 16-14.8 22.1-15.7 21.8-1-.3-1.8-1.5-16.4-28.1-4.6-8.3-10.7-18.7-13.7-23.3-2.9-4.5-5.1-8.2-4.7-8.2.3 0 3.1 1.9 6.2 4.2zM663.3 404.2c-5.4 1.2-13.6 8.7-13.1 12.1.2 1.8 1.1 2.3 4 2.5 4.6.4 9.5-1.8 14.3-6.5 2.7-2.7 3.4-4 2.9-5.6-.6-2.1-2.3-3.8-3.4-3.6-.3.1-2.4.5-4.7 1.1z"/>
</svg>
